<svg xmlns="http://www.w3.org/2000/svg" version="1.1" xmlns:xlink="http://www.w3.org/1999/xlink" xmlns:svgjs="http://svgjs.dev/svgjs" width="100%" height="100%" viewBox="0 0 1000 600"><rect width="1000" height="600" x="0" y="0" fill="#ffe8f5"/><g><circle r="166.66666666666666" cx="278.89348856608075" cy="301.11573582955384" fill="#8000ff" transform="matrix(1.1138153805685445,0,0,1.1138153805685445,0,-35.38735764089289)"/><path d="M300.3173984299579 298.17200640548094L246.64317323938113 298.17200640548094L250.17566337989442 293.2330618571707L298.68198632786846 293.2330618571707L300.3173984299579 298.17200640548094ZM361.0893121436031 373.30283837547177L361.0893121436031 373.30283837547177Q362.037851162815 373.30283837547177 362.037851162815 374.70929278326867Q362.037851162815 376.1157471910657 361.0893121436031 376.1157471910657L361.0893121436031 376.1157471910657Q354.2532895568691 376.1157471910657 347.1883092758425 375.6578318024806Q340.12332899481595 375.16720817185376 333.51626410237446 375.16720817185376L333.51626410237446 375.16720817185376Q326.22232612705534 375.16720817185376 320.82546619016006 375.6578318024806Q315.395898011223 376.1157471910657 308.7888331187815 376.1157471910657L308.7888331187815 376.1157471910657Q307.8730023416113 376.1157471910657 307.8730023416113 374.70929278326867Q307.8730023416113 373.30283837547177 308.7888331187815 373.30283837547177L308.7888331187815 373.30283837547177Q321.2833815787451 373.30283837547177 324.35795633067335 369.63951526679136Q327.3998228405598 365.97619215811085 322.68983598654205 355.86934536719787L322.68983598654205 355.86934536719787L270.4220652037622 245.41361199207424L276.3095487712843 238.11967401675514L230.6161346389042 346.22041396486986Q224.72865107138205 360.5793322212156 229.89655331398484 366.92473117732277Q235.09716379862937 373.30283837547177 250.40462107418693 373.30283837547177L250.40462107418693 373.30283837547177Q251.58211778769137 373.30283837547177 251.58211778769137 374.70929278326867Q251.58211778769137 376.1157471910657 250.40462107418693 376.1157471910657L250.40462107418693 376.1157471910657Q243.33964079316038 376.1157471910657 237.45215722563825 375.6578318024806Q231.5646736581161 375.16720817185376 222.60261533866574 375.16720817185376L222.60261533866574 375.16720817185376Q214.13118064984224 375.16720817185376 209.06140313336482 375.6578318024806Q203.99162561688743 376.1157471910657 196.69768764156834 376.1157471910657L196.69768764156834 376.1157471910657Q195.74914862235642 376.1157471910657 195.74914862235642 374.70929278326867Q195.74914862235642 373.30283837547177 196.69768764156834 373.30283837547177L196.69768764156834 373.30283837547177Q203.07579483971733 373.30283837547177 207.78578169373503 370.8170119802958Q212.49576854775273 368.3311855851198 216.61700704501823 362.1166195971797Q220.73824554228372 355.86934536719787 225.67719009059397 344.09437823215364L225.67719009059397 344.09437823215364L275.36100975207245 226.80262227029593Q275.8189251406575 226.11574918741834 276.9964218541619 226.11574918741834Q278.17391856766636 226.11574918741834 278.43558450400064 226.80262227029593L278.43558450400064 226.80262227029593L334.0068877330013 343.86542053786104Q339.4037476698966 355.37872173657104 343.65581913532924 361.85495366084535Q347.90789060076185 368.3311855851198 352.02912909802734 370.8170119802958Q356.15036759529283 373.30283837547177 361.0893121436031 373.30283837547177Z " fill="#ffe8f5" transform="matrix(1.1138153805685445,0,0,1.1138153805685445,0,-35.38735764089289)"/><path d="M583.0078138527159 327.80013708072227L567.6619627507304 335.11064374604064Q567.0613828830413 335.4212885051902 566.4608030153523 335.4212885051902L566.4608030153523 335.4212885051902Q564.5348055086254 335.4212885051902 562.7330659055582 332.2112926606453Q560.952035953101 329.0012968161003 560.952035953101 322.8919498861601L560.952035953101 322.8919498861601L560.952035953101 296.19721024991253Q560.952035953101 289.19734834374367 559.6887472658931 285.30393402906986Q558.404748928075 281.431229365006 556.2509452646385 279.94013452108834Q554.097141601202 278.44903967717073 551.4048870219062 278.44903967717073L551.4048870219062 278.44903967717073Q547.6771499121122 278.44903967717073 545.2955400919659 280.31290823206774Q542.9139302718197 282.1767767869648 541.7127705364416 285.0139989205303Q540.5116108010635 287.8512210540958 540.0767081382543 290.6884431876613L540.0767081382543 290.6884431876613Q539.9317405839844 292.759408248658 538.8134194510462 294.56114785172514Q537.6950983181081 296.3421778041823 534.5472314253931 296.3421778041823L534.5472314253931 296.3421778041823Q532.1656216052468 296.3421778041823 530.819494315599 295.16172771941416Q529.494076676561 293.96056798403606 529.494076676561 291.86889327242943L529.494076676561 291.86889327242943Q529.494076676561 289.19734834374367 532.1656216052468 286.2772876077383Q534.8578761845425 283.3779365223429 538.958387005316 280.9134880997568Q543.0588978260895 278.44903967717073 547.5943113096722 276.8958158814232Q552.150434443865 275.3218824350657 556.1681066621986 275.3218824350657L556.1681066621986 275.3218824350657Q561.8425509293296 275.3218824350657 565.5702880391237 279.2774257015694Q569.2980251489178 283.2329689680731 569.2980251489178 291.72392571815965L569.2980251489178 291.72392571815965L569.2980251489178 318.1080205952577Q569.2980251489178 323.32685254896944 570.6441524385656 325.7291720197255Q571.9902797282135 328.11078183987183 574.9724694160487 328.11078183987183L574.9724694160487 328.11078183987183Q577.6440143447345 328.11078183987183 582.4279436356369 326.1640746825349L582.4279436356369 326.1640746825349Q583.1734910575957 325.8741395739953 583.4634261661353 326.681815947784Q583.7533612746748 327.5102019721827 583.0078138527159 327.80013708072227L583.0078138527159 327.80013708072227ZM538.4406457400668 335.2556113003104L538.4406457400668 335.2556113003104Q533.6567164491645 335.2556113003104 531.2751066290182 332.64619532345455Q528.893496808872 330.0367793465987 528.893496808872 326.6196869959541L528.893496808872 326.6196869959541Q528.893496808872 322.43633757274085 532.1656216052468 319.97188915015477Q535.4584560522316 317.52815037817857 542.9139302718197 314.9808633531527L542.9139302718197 314.9808633531527L562.4431307970186 307.9810014469838L562.878033459828 309.6170638451712L545.5854752005055 316.18202308853074Q542.1683828498609 317.52815037817857 540.7394169577732 319.16421277636607Q539.3311607162954 320.80027517455335 539.3311607162954 323.32685254896944L539.3311607162954 323.32685254896944Q539.3311607162954 326.47471944168433 541.1121906687525 328.1729107917017Q542.9139302718197 329.8918117923289 545.7304427547753 329.8918117923289L545.7304427547753 329.8918117923289Q547.3872148035726 329.8918117923289 548.8783096474903 329.51903808134955Q550.3694044914079 329.1462643703701 551.8604993353255 328.4007169484113L551.8604993353255 328.4007169484113L564.5348055086254 322.0014349099315L564.8247406171648 323.7824648623887L551.8604993353255 330.7823267685576Q547.3872148035726 333.018969034434 544.4050251157373 334.13729016737216Q541.4228354279021 335.2556113003104 538.4406457400668 335.2556113003104ZM645.9444420564059 276.66800972471356L645.9444420564059 276.66800972471356Q646.3793447192153 276.66800972471356 646.3793447192153 277.55852470094214Q646.3793447192153 278.44903967717073 645.9444420564059 278.44903967717073L645.9444420564059 278.44903967717073Q642.2167049466119 278.44903967717073 639.5244503673161 280.9963267021967Q636.8529054386304 283.5229040766127 634.4505859678742 289.9428957657025L634.4505859678742 289.9428957657025L616.2675127323231 338.4034781930254Q610.9037132243417 352.7138467645127 605.9748163791695 360.97699735788956Q601.0666291846072 369.2608576018764 595.7649586284557 372.698659603131Q590.4632880723042 376.11575195377554 584.0640060338243 376.11575195377554L584.0640060338243 376.11575195377554Q580.9368487917193 376.11575195377554 578.7002065258429 374.7074957122977Q576.4635642599663 373.27852982021 576.4635642599663 370.2963401323748L576.4635642599663 370.2963401323748Q576.4635642599663 368.05969786649825 577.8718205014442 366.9413767335601Q579.2800767429219 365.82305560062184 581.0818163459891 365.82305560062184L581.0818163459891 365.82305560062184Q584.0640060338243 365.82305560062184 585.5551008777419 366.73428022746043Q587.0461957216595 367.624795203689 588.5372905655772 368.5153101799176Q590.0283854094948 369.4058251561462 592.409995229641 369.4058251561462L592.409995229641 369.4058251561462Q595.9927647851654 369.4058251561462 599.3477281839799 366.0508617573315Q602.7026915827947 362.69589835851684 606.5753962468585 354.63984427123967Q610.4481009109223 346.6044998345724 615.6669328646341 332.72903392589444L615.6669328646341 332.72903392589444L615.5219653103643 336.9123833491078L591.9543829162218 289.0316711388639Q588.682258119847 282.4874215461143 586.8183895649499 280.4578757863375Q584.9545210100529 278.44903967717073 582.1172988764873 278.44903967717073L582.1172988764873 278.44903967717073Q581.8273637679479 278.44903967717073 581.8273637679479 277.55852470094214Q581.8273637679479 276.66800972471356 582.1172988764873 276.66800972471356L582.1172988764873 276.66800972471356Q584.4989086966336 276.66800972471356 587.1083246734894 276.81297727898334Q589.7177406503453 276.9579448332531 592.1200601211016 276.9579448332531L592.1200601211016 276.9579448332531Q597.0282473156636 276.9579448332531 600.7559844254578 276.81297727898334Q604.4837215352519 276.66800972471356 607.4659112230871 276.66800972471356L607.4659112230871 276.66800972471356Q607.7765559822366 276.66800972471356 607.7765559822366 277.55852470094214Q607.7765559822366 278.44903967717073 607.4659112230871 278.44903967717073L607.4659112230871 278.44903967717073Q602.7026915827947 278.44903967717073 600.2382431602086 279.65019941254883Q597.7737947376226 280.8306494973169 599.5755343406896 284.2684514985715L599.5755343406896 284.2684514985715L619.9952498421172 326.30904223680466L616.5574478408627 332.4390988173549L631.1784611714994 290.37779842851177Q633.4151034373759 283.6678716308824 631.0956225690596 281.0584556540266Q628.7968513513532 278.44903967717073 620.8857648183458 278.44903967717073L620.8857648183458 278.44903967717073Q620.5958297098063 278.44903967717073 620.5958297098063 277.55852470094214Q620.5958297098063 276.66800972471356 620.8857648183458 276.66800972471356L620.8857648183458 276.66800972471356Q624.46853437387 276.66800972471356 627.678530218415 276.81297727898334Q630.8885260629598 276.9579448332531 635.9416808117918 276.9579448332531L635.9416808117918 276.9579448332531Q639.2345152587767 276.9579448332531 641.2433513679434 276.81297727898334Q643.2521874771103 276.66800972471356 645.9444420564059 276.66800972471356ZM675.1657590670695 336.166835927149L675.1657590670695 336.166835927149Q669.0564121371292 336.166835927149 663.6926126291478 332.58406637162466Q658.3081034705564 329.0012968161003 655.1188172766214 322.6641437294504Q651.9088214320765 316.3269906428005 651.9088214320765 307.67035668783427L651.9088214320765 307.67035668783427Q651.9088214320765 299.1793999377478 655.1188172766214 292.98721440536764Q658.3081034705564 286.7950288729875 663.3819678699982 282.77735665465383Q668.4558322694402 278.75968443632024 674.4202116451107 276.73013867654345Q680.3845910207813 274.72130256737665 685.8933580830325 274.72130256737665L685.8933580830325 274.72130256737665Q691.1121900367442 274.72130256737665 695.7511517733768 276.5230421704438Q700.3694038593995 278.30407212290095 704.0971409691936 281.431229365006L704.0971409691936 281.431229365006L702.4610785710062 291.4339906096201Q698.733341461212 285.6145787882193 694.0943797245794 281.6590355217156Q689.4761276385568 277.7034922552119 681.8756858646989 277.7034922552119L681.8756858646989 277.7034922552119Q672.7841492469233 277.7034922552119 667.1925435822322 284.1856128961316Q661.600937917541 290.6884431876613 661.600937917541 303.1970721560814L661.600937917541 303.1970721560814Q661.600937917541 311.7087385567778 664.127515291957 317.900924089158Q666.674802316983 324.07239997092825 671.1480868487359 327.4273633697429Q675.6213713804888 330.7823267685576 680.9851708884703 330.7823267685576L680.9851708884703 330.7823267685576Q687.6950976860995 330.7823267685576 692.9139296398114 327.05458965876346Q698.132761593523 323.32685254896944 702.7510136795457 318.1080205952577L702.7510136795457 318.1080205952577L703.9521734149238 319.16421277636607Q700.8043065222088 322.7469823318903 696.6416667496054 326.681815947784Q692.458317326392 330.6373592142878 687.1773564208504 333.39174274541335Q681.8756858646989 336.166835927149 675.1657590670695 336.166835927149ZM708.5704255009465 227.316912321162L708.5704255009465 227.316912321162L708.5704255009465 317.81808548671813Q708.5704255009465 323.18188499469966 709.7508755857145 325.56349481484585Q710.9520353210927 327.96581428560205 713.9342250089279 327.96581428560205L713.9342250089279 327.96581428560205Q715.4253198528455 327.96581428560205 717.4341559620124 327.5930405746226Q719.4429920711792 327.22026686364325 721.6796343370556 325.8741395739953L721.6796343370556 325.8741395739953Q722.4251817590144 325.56349481484585 722.7979554699938 326.39188083924455Q723.1707291809732 327.22026686364325 722.5908589638942 327.5102019721827L722.5908589638942 327.5102019721827L706.1888156808002 335.2556113003104Q705.5882358131112 335.56625605946 704.9876559454221 335.56625605946L704.9876559454221 335.56625605946Q703.206625992965 335.56625605946 701.7155311490474 332.1284540582054Q700.2244363051298 328.71136170756085 700.2244363051298 322.1464024642013L700.2244363051298 322.1464024642013L700.2244363051298 245.21005044817355Q700.2244363051298 239.8255412895821 699.1682441240214 237.44393146943588Q698.132761593523 235.0623216492897 695.2955394599575 235.0623216492897L695.2955394599575 235.0623216492897Q693.9494121703096 235.0623216492897 692.3961883745621 235.58006291453884Q690.8222549282046 236.09780417978803 688.4406451080584 237.15399636089637L688.4406451080584 237.15399636089637Q687.8400652403694 237.44393146943588 687.46729152939 236.55341649320732Q687.0945178184106 235.6629015169787 687.5501301318299 235.51793396270895L687.5501301318299 235.51793396270895L706.4787507893398 226.26072014005365Q706.7686858978793 226.1157525857839 707.2242982112986 226.1157525857839L707.2242982112986 226.1157525857839Q707.6799105247179 226.1157525857839 708.1148131875271 226.4885262967633Q708.5704255009465 226.8613000077427 708.5704255009465 227.316912321162ZM785.0511652035549 327.80013708072227L769.7053141015693 335.11064374604064Q769.1047342338802 335.4212885051902 768.5041543661912 335.4212885051902L768.5041543661912 335.4212885051902Q766.5781568594642 335.4212885051902 764.7764172563972 332.2112926606453Q762.99538730394 329.0012968161003 762.99538730394 322.8919498861601L762.99538730394 322.8919498861601L762.99538730394 296.19721024991253Q762.99538730394 289.19734834374367 761.732098616732 285.30393402906986Q760.448100278914 281.431229365006 758.2942966154774 279.94013452108834Q756.1404929520409 278.44903967717073 753.4482383727451 278.44903967717073L753.4482383727451 278.44903967717073Q749.7205012629511 278.44903967717073 747.3388914428049 280.31290823206774Q744.9572816226586 282.1767767869648 743.7561218872805 285.0139989205303Q742.5549621519025 287.8512210540958 742.1200594890931 290.6884431876613L742.1200594890931 290.6884431876613Q741.9750919348234 292.759408248658 740.8567708018851 294.56114785172514Q739.7384496689469 296.3421778041823 736.5905827762319 296.3421778041823L736.5905827762319 296.3421778041823Q734.2089729560857 296.3421778041823 732.8628456664378 295.16172771941416Q731.5374280273999 293.96056798403606 731.5374280273999 291.86889327242943L731.5374280273999 291.86889327242943Q731.5374280273999 289.19734834374367 734.2089729560857 286.2772876077383Q736.9012275353814 283.3779365223429 741.0017383561549 280.9134880997568Q745.1022491769284 278.44903967717073 749.6376626605112 276.8958158814232Q754.193785794704 275.3218824350657 758.2114580130376 275.3218824350657L758.2114580130376 275.3218824350657Q763.8859022801686 275.3218824350657 767.6136393899626 279.2774257015694Q771.3413764997566 283.2329689680731 771.3413764997566 291.72392571815965L771.3413764997566 291.72392571815965L771.3413764997566 318.1080205952577Q771.3413764997566 323.32685254896944 772.6875037894046 325.7291720197255Q774.0336310790524 328.11078183987183 777.0158207668877 328.11078183987183L777.0158207668877 328.11078183987183Q779.6873656955735 328.11078183987183 784.4712949864758 326.1640746825349L784.4712949864758 326.1640746825349Q785.2168424084347 325.8741395739953 785.5067775169742 326.681815947784Q785.7967126255137 327.5102019721827 785.0511652035549 327.80013708072227L785.0511652035549 327.80013708072227ZM740.4839970909057 335.2556113003104L740.4839970909057 335.2556113003104Q735.7000678000034 335.2556113003104 733.318457979857 332.64619532345455Q730.9368481597108 330.0367793465987 730.9368481597108 326.6196869959541L730.9368481597108 326.6196869959541Q730.9368481597108 322.43633757274085 734.2089729560857 319.97188915015477Q737.5018074030705 317.52815037817857 744.9572816226586 314.9808633531527L744.9572816226586 314.9808633531527L764.4864821478576 307.9810014469838L764.9213848106668 309.6170638451712L747.6288265513443 316.18202308853074Q744.2117342006998 317.52815037817857 742.782768308612 319.16421277636607Q741.3745120671343 320.80027517455335 741.3745120671343 323.32685254896944L741.3745120671343 323.32685254896944Q741.3745120671343 326.47471944168433 743.1555420195915 328.1729107917017Q744.9572816226586 329.8918117923289 747.7737941056141 329.8918117923289L747.7737941056141 329.8918117923289Q749.4305661544115 329.8918117923289 750.9216609983291 329.51903808134955Q752.4127558422467 329.1462643703701 753.9038506861644 328.4007169484113L753.9038506861644 328.4007169484113L766.5781568594642 322.0014349099315L766.8680919680038 323.7824648623887L753.9038506861644 330.7823267685576Q749.4305661544115 333.018969034434 746.4483764665762 334.13729016737216Q743.466186778741 335.2556113003104 740.4839970909057 335.2556113003104Z " fill="#8000ff" transform="matrix(1.1138153805685445,0,0,1.1138153805685445,0,-35.38735764089289)"/></g></svg>